<svg width="20" height="20" viewBox="0 0 20 20" fill="none" xmlns="http://www.w3.org/2000/svg">
<path fill-rule="evenodd" clip-rule="evenodd" d="M19.93 3.258C20 3.626 20 4.068 20 4.95V12C20 15.771 20 17.657 18.828 18.828C17.656 19.999 15.771 20 12 20H8C4.229 20 2.343 20 1.172 18.828C0.00100088 17.656 0 15.771 0 12V9.798C0 7.166 4.76837e-07 5.849 0.77 4.994C0.840643 4.9151 0.915414 4.83999 0.993999 4.769C1.849 4 3.166 4 5.798 4H6.172C7.325 4 7.902 4 8.44 3.847C8.73524 3.7626 9.01978 3.64449 9.288 3.495C9.776 3.224 10.184 2.815 11 2L11.55 1.45C11.824 1.176 11.96 1.04 12.104 0.92C12.7233 0.40664 13.4831 0.0919439 14.284 0.017C14.47 -4.09782e-08 14.664 0 15.05 0C15.933 0 16.374 -6.70552e-08 16.742 0.0699999C17.5322 0.219224 18.259 0.603137 18.8277 1.17165C19.3964 1.74017 19.7805 2.46789 19.93 3.258ZM9.75 8C9.75 7.80109 9.67098 7.61032 9.53033 7.46967C9.38968 7.32902 9.19891 7.25 9 7.25H4C3.80109 7.25 3.61032 7.32902 3.46967 7.46967C3.32902 7.61032 3.25 7.80109 3.25 8C3.25 8.19891 3.32902 8.38968 3.46967 8.53033C3.61032 8.67098 3.80109 8.75 4 8.75H9C9.19891 8.75 9.38968 8.67098 9.53033 8.53033C9.67098 8.38968 9.75 8.19891 9.75 8Z" fill="black"/>
</svg>
