<svg width="19" height="20" viewBox="0 0 19 20" fill="none" xmlns="http://www.w3.org/2000/svg">
<path fill-rule="evenodd" clip-rule="evenodd" d="M16 0C16.7956 0 17.5587 0.316071 18.1213 0.87868C18.6839 1.44129 19 2.20435 19 3V17C19 17.7956 18.6839 18.5587 18.1213 19.1213C17.5587 19.6839 16.7956 20 16 20H10C9.20435 20 8.44129 19.6839 7.87868 19.1213C7.31607 18.5587 7 17.7956 7 17V3C7 2.20435 7.31607 1.44129 7.87868 0.87868C8.44129 0.316071 9.20435 0 10 0H16ZM5.707 5.293C5.51947 5.10553 5.26516 5.00021 5 5.00021C4.73484 5.00021 4.48053 5.10553 4.293 5.293L0.292999 9.293C0.105528 9.48053 0.000213623 9.73484 0.000213623 10C0.000213623 10.2652 0.105528 10.5195 0.292999 10.707L4.293 14.707C4.4816 14.8892 4.7342 14.99 4.9964 14.9877C5.2586 14.9854 5.50941 14.8802 5.69482 14.6948C5.88023 14.5094 5.9854 14.2586 5.98767 13.9964C5.98995 13.7342 5.88916 13.4816 5.707 13.293L3.414 11H12C12.2652 11 12.5196 10.8946 12.7071 10.7071C12.8946 10.5196 13 10.2652 13 10C13 9.73478 12.8946 9.48043 12.7071 9.29289C12.5196 9.10536 12.2652 9 12 9H3.414L5.707 6.707C5.89447 6.51947 5.99979 6.26516 5.99979 6C5.99979 5.73484 5.89447 5.48053 5.707 5.293Z" fill="black"/>
</svg>
