<svg width="16" height="17" viewBox="0 0 16 17" fill="none" xmlns="http://www.w3.org/2000/svg">
<path d="M15.3333 14.4166V6.16665C15.3333 5.87637 15.2682 5.60137 15.1381 5.34165C15.0079 5.08192 14.8285 4.86803 14.6 4.69998L9.09998 0.57498C8.77915 0.330535 8.41248 0.208313 7.99998 0.208313C7.58748 0.208313 7.22081 0.330535 6.89998 0.57498L1.39998 4.69998C1.17081 4.86803 0.991146 5.08192 0.860979 5.34165C0.730813 5.60137 0.666035 5.87637 0.666646 6.16665V14.4166C0.666646 14.9208 0.846313 15.3526 1.20565 15.7119C1.56498 16.0712 1.99642 16.2506 2.49998 16.25H5.24998C5.5097 16.25 5.72726 16.162 5.90265 15.986C6.07804 15.81 6.16603 15.5924 6.16665 15.3333V10.75C6.16665 10.4903 6.25465 10.2727 6.43065 10.0973C6.60665 9.92192 6.8242 9.83392 7.08331 9.83331H8.91665C9.17637 9.83331 9.39392 9.92131 9.56931 10.0973C9.7447 10.2733 9.8327 10.4909 9.83331 10.75V15.3333C9.83331 15.593 9.92131 15.8109 10.0973 15.9869C10.2733 16.1629 10.4909 16.2506 10.75 16.25H13.5C14.0041 16.25 14.4356 16.0706 14.7943 15.7119C15.153 15.3532 15.3327 14.9214 15.3333 14.4166Z" fill="black"/>
</svg>
