<svg width="20" height="20" viewBox="0 0 20 20" fill="none" xmlns="http://www.w3.org/2000/svg">
<path d="M11.5 1.91687e-08C9.90403 -0.000107143 8.34027 0.449106 6.98769 1.29623C5.63511 2.14336 4.54834 3.35417 3.85177 4.79009C3.15519 6.22602 2.87695 7.82905 3.04889 9.41573C3.22083 11.0024 3.83599 12.5086 4.82399 13.762L1.17199 17.414C0.989834 17.6026 0.889038 17.8552 0.891317 18.1174C0.893597 18.3796 0.998764 18.6304 1.18417 18.8158C1.36958 19.0012 1.62039 19.1064 1.88259 19.1087C2.14479 19.111 2.39739 19.0102 2.58599 18.828L6.23799 15.176C7.30254 16.015 8.55229 16.5872 9.88297 16.8449C11.2136 17.1026 12.5867 17.0384 13.8875 16.6576C15.1883 16.2768 16.3792 15.5904 17.3608 14.6557C18.3423 13.7211 19.0862 12.5652 19.5302 11.2846C19.9742 10.004 20.1056 8.63574 19.9133 7.29404C19.721 5.95235 19.2106 4.67609 18.4248 3.57175C17.6389 2.46742 16.6003 1.56702 15.3957 0.945694C14.1911 0.324364 12.8554 0.000115492 11.5 1.91687e-08ZM11.5 2C13.2239 2 14.8772 2.68482 16.0962 3.90381C17.3152 5.12279 18 6.77609 18 8.5C18 10.2239 17.3152 11.8772 16.0962 13.0962C14.8772 14.3152 13.2239 15 11.5 15C9.77608 15 8.12278 14.3152 6.9038 13.0962C5.68481 11.8772 4.99999 10.2239 4.99999 8.5C4.99999 6.77609 5.68481 5.12279 6.9038 3.90381C8.12278 2.68482 9.77608 2 11.5 2ZM11.5 3C10.0413 3 8.64235 3.57946 7.6109 4.61091C6.57945 5.64236 5.99999 7.04131 5.99999 8.5C5.99999 9.95869 6.57945 11.3576 7.6109 12.3891C8.64235 13.4205 10.0413 14 11.5 14C12.9587 14 14.3576 13.4205 15.3891 12.3891C16.4205 11.3576 17 9.95869 17 8.5C17 7.04131 16.4205 5.64236 15.3891 4.61091C14.3576 3.57946 12.9587 3 11.5 3Z" fill="black"/>
</svg>
