<svg width="8" height="8" viewBox="0 0 8 8" fill="none" xmlns="http://www.w3.org/2000/svg">
<path fill-rule="evenodd" clip-rule="evenodd" d="M3.99544 5.07682L1.30133 7.76787C1.15837 7.91067 0.964474 7.99089 0.762299 7.99089C0.560125 7.99089 0.366232 7.91067 0.223273 7.76787C0.0803144 7.62507 3.59807e-07 7.4314 3.59807e-07 7.22946C3.59807e-07 7.02752 0.0803144 6.83384 0.223273 6.69105L2.91841 4L0.223781 1.30895C0.153028 1.23825 0.0969111 1.15431 0.0586328 1.06195C0.0203545 0.969579 0.000664765 0.870584 0.000688352 0.770615C0.000711939 0.670646 0.0204475 0.571661 0.0587694 0.479311C0.0970913 0.386961 0.153249 0.303054 0.224035 0.232382C0.294821 0.16171 0.37885 0.105657 0.471323 0.0674221C0.563797 0.0291874 0.662904 0.00952038 0.762987 0.00954394C0.86307 0.0095675 0.962169 0.0292811 1.05462 0.0675593C1.14708 0.105837 1.23108 0.161931 1.30183 0.232636L3.99544 2.92368L6.68956 0.232636C6.75983 0.159903 6.84389 0.101875 6.93684 0.0619387C7.0298 0.0220025 7.12978 0.000957515 7.23097 3.1921e-05C7.33215 -0.000893673 7.43251 0.0183185 7.52618 0.0565475C7.61985 0.0947765 7.70496 0.151257 7.77655 0.222693C7.84813 0.294128 7.90475 0.379089 7.94312 0.472618C7.98148 0.566146 8.00081 0.666369 7.99997 0.767439C7.99914 0.868509 7.97817 0.968401 7.93827 1.06129C7.89838 1.15417 7.84037 1.23819 7.76762 1.30845L5.07248 4L7.76711 6.69155C7.83986 6.76181 7.89787 6.84583 7.93777 6.93871C7.97766 7.0316 7.99864 7.13149 7.99947 7.23256C8.0003 7.33363 7.98097 7.43385 7.94261 7.52738C7.90425 7.62091 7.84762 7.70587 7.77604 7.77731C7.70445 7.84874 7.61934 7.90522 7.52567 7.94345C7.432 7.98168 7.33164 8.00089 7.23046 7.99997C7.12927 7.99904 7.02929 7.978 6.93633 7.93806C6.84338 7.89812 6.75932 7.8401 6.68905 7.76736L3.99544 5.07682Z" fill="#FF6666"/>
</svg>
