<svg width="21" height="21" viewBox="0 0 21 21" fill="none" xmlns="http://www.w3.org/2000/svg">
<g clip-path="url(#clip0_18_338)">
<path d="M12.565 3.56912L13.3761 2.758C14.0214 2.11274 14.8965 1.75024 15.8091 1.75024C16.7216 1.75024 17.5968 2.11274 18.242 2.758C18.8873 3.40325 19.2498 4.27841 19.2498 5.19094C19.2498 6.10347 18.8873 6.97862 18.242 7.62387L17.4309 8.435M12.565 3.56912C12.565 3.56912 12.6665 5.29287 14.1873 6.81275C15.708 8.3335 17.4309 8.435 17.4309 8.435M12.565 3.56912L5.10827 11.0241C4.60339 11.5299 4.35052 11.7827 4.13352 12.061C3.87748 12.3895 3.65775 12.7448 3.47814 13.1206C3.32677 13.4391 3.21389 13.7786 2.98814 14.4559L2.03089 17.3267M17.4309 8.435L9.97502 15.89C9.47014 16.3949 9.21727 16.6477 8.93902 16.8647C8.61048 17.1208 8.2552 17.3405 7.87939 17.5201C7.56089 17.6715 7.22227 17.7844 6.54414 18.0101L3.67327 18.9674M3.67327 18.9674L2.97152 19.2019C2.80794 19.2567 2.6323 19.2649 2.46436 19.2254C2.29641 19.1859 2.1428 19.1003 2.0208 18.9783C1.89881 18.8563 1.81326 18.7027 1.77377 18.5348C1.73428 18.3668 1.74242 18.1912 1.79727 18.0276L2.03177 17.3259L3.67327 18.9674Z" stroke="black" stroke-width="3"/>
</g>
<defs>
<clipPath id="clip0_18_338">
<rect width="21" height="21" fill="white"/>
</clipPath>
</defs>
</svg>
