<svg width="22" height="16" viewBox="0 0 22 16" fill="none" xmlns="http://www.w3.org/2000/svg">
<path d="M11 5C11.7956 5 12.5587 5.31607 13.1213 5.87868C13.6839 6.44129 14 7.20435 14 8C14 8.79565 13.6839 9.55871 13.1213 10.1213C12.5587 10.6839 11.7956 11 11 11C10.2044 11 9.44129 10.6839 8.87868 10.1213C8.31607 9.55871 8 8.79565 8 8C8 7.20435 8.31607 6.44129 8.87868 5.87868C9.44129 5.31607 10.2044 5 11 5ZM11 13C12.3261 13 13.5979 12.4732 14.5355 11.5355C15.4732 10.5979 16 9.32608 16 8C16 6.67392 15.4732 5.40215 14.5355 4.46447C13.5979 3.52678 12.3261 3 11 3C9.67392 3 8.40215 3.52678 7.46447 4.46447C6.52678 5.40215 6 6.67392 6 8C6 9.32608 6.52678 10.5979 7.46447 11.5355C8.40215 12.4732 9.67392 13 11 13ZM11 0.5C16 0.5 20.27 3.61 22 8C20.27 12.39 16 15.5 11 15.5C6 15.5 1.73 12.39 0 8C1.73 3.61 6 0.5 11 0.5Z" fill="white"/>
</svg>
