<svg width="21" height="21" viewBox="0 0 21 21" fill="none" xmlns="http://www.w3.org/2000/svg">
<path d="M10.4807 1.70713e-05C7.67499 0.00505537 5.12756 1.11069 3.24679 2.90805L1.73466 1.39592C1.0945 0.755805 0 1.20917 0 2.11445V7.79033C0 8.35153 0.454929 8.80646 1.01613 8.80646H6.69201C7.5973 8.80646 8.05066 7.71196 7.41054 7.0718L5.6429 5.30416C6.94965 4.08062 8.64053 3.40286 10.4369 3.38737C14.3489 3.35358 17.6465 6.51945 17.6126 10.5613C17.5806 14.3955 14.472 17.6129 10.5 17.6129C8.75874 17.6129 7.11303 16.9915 5.81611 15.8535C5.6153 15.6773 5.31203 15.688 5.12311 15.8769L3.44387 17.5561C3.2376 17.7624 3.2478 18.0987 3.46428 18.2942C5.32612 19.976 7.79346 21 10.5 21C16.299 21 21 16.299 21 10.5001C21 4.70778 16.2731 -0.0103559 10.4807 1.70713e-05Z" fill="white"/>
</svg>
