<svg width="17" height="17" viewBox="0 0 17 17" fill="none" xmlns="http://www.w3.org/2000/svg">
<path fill-rule="evenodd" clip-rule="evenodd" d="M5 4.125C5 3.19674 5.36875 2.3065 6.02513 1.65013C6.6815 0.993749 7.57174 0.625 8.5 0.625C9.42826 0.625 10.3185 0.993749 10.9749 1.65013C11.6313 2.3065 12 3.19674 12 4.125C12 5.05326 11.6313 5.9435 10.9749 6.59987C10.3185 7.25625 9.42826 7.625 8.5 7.625C7.57174 7.625 6.6815 7.25625 6.02513 6.59987C5.36875 5.9435 5 5.05326 5 4.125ZM5 9.375C3.83968 9.375 2.72688 9.83594 1.90641 10.6564C1.08594 11.4769 0.625 12.5897 0.625 13.75C0.625 14.4462 0.901562 15.1139 1.39384 15.6062C1.88613 16.0984 2.55381 16.375 3.25 16.375H13.75C14.4462 16.375 15.1139 16.0984 15.6062 15.6062C16.0984 15.1139 16.375 14.4462 16.375 13.75C16.375 12.5897 15.9141 11.4769 15.0936 10.6564C14.2731 9.83594 13.1603 9.375 12 9.375H5Z" fill="white"/>
</svg>
