<svg width="15" height="15" viewBox="0 0 15 15" fill="none" xmlns="http://www.w3.org/2000/svg">
<path d="M12.6489 5.96589L13.2514 5.36333C13.7307 4.88399 14 4.23387 14 3.55598C14 2.87809 13.7307 2.22797 13.2514 1.74863C12.7721 1.26929 12.122 1 11.4441 1C10.7663 1 10.1162 1.26929 9.63689 1.74863L9.03436 2.35119L3.49526 7.88927C3.12022 8.26497 2.93238 8.45282 2.77118 8.65953C2.581 8.90359 2.41777 9.16751 2.28435 9.44669C2.17191 9.68329 2.08806 9.93549 1.92036 10.4386L1.20929 12.5713M12.6489 5.96589C12.6489 5.96589 11.3691 5.89049 10.2394 4.76077C9.10976 3.63171 9.03501 2.35119 9.03501 2.35119M12.6489 5.96589L7.11043 11.504C6.73539 11.879 6.54755 12.0669 6.34086 12.2281C6.09681 12.4183 5.8329 12.5815 5.55373 12.7149C5.31714 12.8274 5.0656 12.9112 4.56187 13.0789L2.4293 13.79M2.4293 13.79L1.90801 13.9643C1.7865 14.005 1.65604 14.011 1.53128 13.9817C1.40652 13.9524 1.29242 13.8888 1.2018 13.7982C1.11117 13.7076 1.04762 13.5935 1.01829 13.4687C0.988956 13.3439 0.995001 13.2135 1.03575 13.0919L1.20994 12.5706L2.4293 13.79Z" stroke="white" stroke-width="1.5"/>
</svg>
