<svg width="421" height="498" viewBox="0 0 421 498" fill="none" xmlns="http://www.w3.org/2000/svg">
<circle cx="274.483" cy="293.839" r="5.44309" transform="rotate(30.114 274.483 293.839)" fill="#E4D4FA"/>
<path opacity="0.1" fill-rule="evenodd" clip-rule="evenodd" d="M193.7 338.378C211.416 348.654 234.108 342.622 244.384 324.905C254.659 307.189 248.627 284.497 230.911 274.221C213.195 263.946 190.503 269.978 180.227 287.694C169.951 305.41 175.983 328.102 193.7 338.378Z" fill="#6A5AE0" stroke="#9D00FF" stroke-width="2"/>
<path opacity="0.2" fill-rule="evenodd" clip-rule="evenodd" d="M180.487 363.156C211.131 380.93 250.382 370.497 268.156 339.852C285.93 309.208 275.497 269.957 244.852 252.183C214.208 234.409 174.957 244.842 157.183 275.487C139.409 306.131 149.842 345.382 180.487 363.156Z" stroke="#BE9BEF"/>
<circle cx="93.5433" cy="46.207" r="3.40617" transform="rotate(30.114 93.5433 46.207)" fill="#E4D4FA"/>
<path opacity="0.1" fill-rule="evenodd" clip-rule="evenodd" d="M42.9908 74.0784C54.0773 80.5086 68.2775 76.734 74.7077 65.6474C81.138 54.5609 77.3633 40.3608 66.2768 33.9305C55.1903 27.5003 40.9901 31.2749 34.5599 42.3615C28.1296 53.448 31.9043 67.6481 42.9908 74.0784Z" fill="#6A5AE0" stroke="#9D00FF" stroke-width="2"/>
<path opacity="0.2" fill-rule="evenodd" clip-rule="evenodd" d="M34.7224 89.5841C53.8991 100.707 78.4615 94.1776 89.5841 75.0009C100.707 55.8242 94.1776 31.2618 75.0009 20.1392C55.8242 9.01664 31.2618 15.5458 20.1392 34.7224C9.01663 53.8991 15.5458 78.4615 34.7224 89.5841Z" stroke="#BE9BEF"/>
<circle cx="246.376" cy="469.027" r="3.40617" transform="rotate(75 246.376 469.027)" fill="#E4D4FA"/>
<path opacity="0.1" fill-rule="evenodd" clip-rule="evenodd" d="M190.89 453.1C194.207 465.479 206.932 472.826 219.311 469.509C231.691 466.192 239.038 453.467 235.72 441.087C232.403 428.708 219.679 421.361 207.299 424.678C194.919 427.995 187.573 440.72 190.89 453.1Z" fill="#6A5AE0" stroke="#9D00FF" stroke-width="2"/>
<path opacity="0.2" fill-rule="evenodd" clip-rule="evenodd" d="M174.089 458.251C179.827 479.664 201.837 492.372 223.251 486.634C244.664 480.896 257.372 458.886 251.634 437.473C245.896 416.059 223.886 403.351 202.473 409.089C181.059 414.827 168.351 436.837 174.089 458.251Z" stroke="#BE9BEF"/>
<circle cx="112.463" cy="322.164" r="1.94673" transform="rotate(30.114 112.463 322.164)" fill="#E4D4FA"/>
<path opacity="0.1" fill-rule="evenodd" clip-rule="evenodd" d="M83.5706 338.093C89.9069 341.768 98.0227 339.611 101.698 333.275C105.373 326.938 103.216 318.822 96.8792 315.147C90.5429 311.472 82.4271 313.63 78.752 319.966C75.077 326.302 77.2343 334.418 83.5706 338.093Z" fill="#6A5AE0" stroke="#9D00FF" stroke-width="2"/>
<path opacity="0.2" fill-rule="evenodd" clip-rule="evenodd" d="M78.845 346.955C89.805 353.312 103.843 349.58 110.2 338.62C116.557 327.66 112.825 313.622 101.865 307.265C90.9053 300.908 76.8671 304.64 70.5102 315.6C64.1533 326.56 67.8849 340.598 78.845 346.955Z" stroke="#BE9BEF"/>
<circle cx="402.473" cy="132.556" r="7.11769" transform="rotate(30.114 402.473 132.556)" fill="#E4D4FA"/>
<path opacity="0.1" fill-rule="evenodd" clip-rule="evenodd" d="M296.836 190.798C320.003 204.235 349.676 196.347 363.113 173.18C376.55 150.013 368.662 120.34 345.495 106.903C322.328 93.466 292.655 101.354 279.218 124.521C265.781 147.688 273.669 177.361 296.836 190.798Z" fill="#6A5AE0" stroke="#9D00FF" stroke-width="2"/>
<path opacity="0.2" fill-rule="evenodd" clip-rule="evenodd" d="M279.558 223.199C319.63 246.442 370.957 232.798 394.199 192.726C417.442 152.653 403.798 101.326 363.726 78.0839C323.653 54.8416 272.326 68.4852 249.084 108.558C225.842 148.63 239.485 199.957 279.558 223.199Z" stroke="#BE9BEF"/>
</svg>
