<svg width="143" height="130" viewBox="0 0 143 130" fill="none" xmlns="http://www.w3.org/2000/svg">
<g filter="url(#filter0_i_160_851)">
<path d="M39 108.5C39 119.27 30.2696 128 19.5 128C8.73045 128 0 119.27 0 108.5C0 97.7304 8.73045 89 19.5 89C30.2696 89 39 97.7304 39 108.5Z" fill="url(#paint0_linear_160_851)"/>
</g>
<g filter="url(#filter1_i_160_851)">
<path d="M177 38.5C177 59.763 159.763 77 138.5 77C117.237 77 100 59.763 100 38.5C100 17.237 117.237 0 138.5 0C159.763 0 177 17.237 177 38.5Z" fill="url(#paint1_linear_160_851)"/>
</g>
<g filter="url(#filter2_i_160_851)">
<path d="M115 103.5C115 118.136 103.136 130 88.5 130C73.8645 130 62 118.136 62 103.5C62 88.8645 73.8645 77 88.5 77C103.136 77 115 88.8645 115 103.5Z" fill="url(#paint2_linear_160_851)"/>
</g>
<defs>
<filter id="filter0_i_160_851" x="0" y="89" width="47" height="73" filterUnits="userSpaceOnUse" color-interpolation-filters="sRGB">
<feFlood flood-opacity="0" result="BackgroundImageFix"/>
<feBlend mode="normal" in="SourceGraphic" in2="BackgroundImageFix" result="shape"/>
<feColorMatrix in="SourceAlpha" type="matrix" values="0 0 0 0 0 0 0 0 0 0 0 0 0 0 0 0 0 0 127 0" result="hardAlpha"/>
<feMorphology radius="10" operator="erode" in="SourceAlpha" result="effect1_innerShadow_160_851"/>
<feOffset dx="8" dy="34"/>
<feGaussianBlur stdDeviation="12.5"/>
<feComposite in2="hardAlpha" operator="arithmetic" k2="-1" k3="1"/>
<feColorMatrix type="matrix" values="0 0 0 0 1 0 0 0 0 1 0 0 0 0 1 0 0 0 0.4 0"/>
<feBlend mode="normal" in2="shape" result="effect1_innerShadow_160_851"/>
</filter>
<filter id="filter1_i_160_851" x="100" y="0" width="85" height="111" filterUnits="userSpaceOnUse" color-interpolation-filters="sRGB">
<feFlood flood-opacity="0" result="BackgroundImageFix"/>
<feBlend mode="normal" in="SourceGraphic" in2="BackgroundImageFix" result="shape"/>
<feColorMatrix in="SourceAlpha" type="matrix" values="0 0 0 0 0 0 0 0 0 0 0 0 0 0 0 0 0 0 127 0" result="hardAlpha"/>
<feMorphology radius="10" operator="erode" in="SourceAlpha" result="effect1_innerShadow_160_851"/>
<feOffset dx="8" dy="34"/>
<feGaussianBlur stdDeviation="12.5"/>
<feComposite in2="hardAlpha" operator="arithmetic" k2="-1" k3="1"/>
<feColorMatrix type="matrix" values="0 0 0 0 1 0 0 0 0 1 0 0 0 0 1 0 0 0 0.4 0"/>
<feBlend mode="normal" in2="shape" result="effect1_innerShadow_160_851"/>
</filter>
<filter id="filter2_i_160_851" x="62" y="77" width="61" height="87" filterUnits="userSpaceOnUse" color-interpolation-filters="sRGB">
<feFlood flood-opacity="0" result="BackgroundImageFix"/>
<feBlend mode="normal" in="SourceGraphic" in2="BackgroundImageFix" result="shape"/>
<feColorMatrix in="SourceAlpha" type="matrix" values="0 0 0 0 0 0 0 0 0 0 0 0 0 0 0 0 0 0 127 0" result="hardAlpha"/>
<feMorphology radius="10" operator="erode" in="SourceAlpha" result="effect1_innerShadow_160_851"/>
<feOffset dx="8" dy="34"/>
<feGaussianBlur stdDeviation="12.5"/>
<feComposite in2="hardAlpha" operator="arithmetic" k2="-1" k3="1"/>
<feColorMatrix type="matrix" values="0 0 0 0 1 0 0 0 0 1 0 0 0 0 1 0 0 0 0.4 0"/>
<feBlend mode="normal" in2="shape" result="effect1_innerShadow_160_851"/>
</filter>
<linearGradient id="paint0_linear_160_851" x1="19.4407" y1="89" x2="19.4407" y2="128" gradientUnits="userSpaceOnUse">
<stop stop-color="#BE9BEF"/>
<stop offset="0.371667" stop-color="#6659FF"/>
<stop offset="0.716667" stop-color="#B36FD2"/>
<stop offset="1" stop-color="#D3E8FF"/>
</linearGradient>
<linearGradient id="paint1_linear_160_851" x1="138.383" y1="0" x2="138.383" y2="77" gradientUnits="userSpaceOnUse">
<stop stop-color="#BE9BEF"/>
<stop offset="0.371667" stop-color="#6659FF"/>
<stop offset="0.716667" stop-color="#B36FD2"/>
<stop offset="1" stop-color="#D3E8FF"/>
</linearGradient>
<linearGradient id="paint2_linear_160_851" x1="88.4195" y1="77" x2="88.4195" y2="130" gradientUnits="userSpaceOnUse">
<stop stop-color="#BE9BEF"/>
<stop offset="0.371667" stop-color="#6659FF"/>
<stop offset="0.716667" stop-color="#B36FD2"/>
<stop offset="1" stop-color="#D3E8FF"/>
</linearGradient>
</defs>
</svg>
