<svg width="16" height="16" viewBox="0 0 16 16" fill="none" xmlns="http://www.w3.org/2000/svg">
<g clip-path="url(#clip0_15_316)">
<path d="M3.875 6.89842C3.94271 6.89842 4.01823 6.90884 4.10156 6.92967C4.18489 6.95051 4.26823 6.97915 4.35156 7.01561C4.43489 7.05207 4.51823 7.08592 4.60156 7.11717C4.68489 7.14842 4.76041 7.17967 4.82812 7.21092L4.70312 7.22655C4.66146 7.23176 4.61719 7.23436 4.57031 7.23436C4.48177 7.23436 4.40104 7.22134 4.32812 7.1953C4.25521 7.16926 4.1875 7.1354 4.125 7.09374C4.0625 7.05207 4 7.02082 3.9375 6.99999C3.875 6.97915 3.81771 6.96353 3.76562 6.95311C3.71354 6.95311 3.66666 6.96353 3.625 6.98436C3.58333 7.0052 3.54166 7.02863 3.5 7.05467C3.5 7.03384 3.48177 7.02342 3.44531 7.02342C3.48177 6.98697 3.54948 6.95832 3.64844 6.93749C3.74739 6.91665 3.82291 6.90363 3.875 6.89842ZM4.92969 7.24999C5.14323 7.24999 5.33854 7.28645 5.51562 7.35936C5.44271 7.3854 5.36979 7.40624 5.29687 7.42186C5.22396 7.43749 5.14844 7.4479 5.07031 7.45311C4.96614 7.45311 4.87239 7.4427 4.78906 7.42186C4.8151 7.3802 4.84114 7.35415 4.86719 7.34374C4.89323 7.33332 4.91406 7.30207 4.92969 7.24999ZM8 -1.33025e-05C8.73437 -1.33025e-05 9.4401 0.0963409 10.1172 0.289049C10.7943 0.481758 11.4297 0.749987 12.0234 1.09374C12.6172 1.43749 13.1589 1.85676 13.6484 2.35155C14.138 2.84634 14.5547 3.3854 14.8984 3.96874C15.2422 4.55207 15.513 5.18749 15.7109 5.87499C15.9089 6.56249 16.0052 7.27082 16 7.99999C16 8.73436 15.9036 9.44009 15.7109 10.1172C15.5182 10.7943 15.25 11.4297 14.9062 12.0234C14.5625 12.6172 14.1432 13.1588 13.6484 13.6484C13.1536 14.138 12.6146 14.5547 12.0312 14.8984C11.4479 15.2422 10.8125 15.513 10.125 15.7109C9.4375 15.9088 8.72917 16.0052 8 16C7.26562 16 6.55989 15.9036 5.88281 15.7109C5.20573 15.5182 4.57031 15.25 3.97656 14.9062C3.38281 14.5625 2.84114 14.1432 2.35156 13.6484C1.86198 13.1536 1.44531 12.6146 1.10156 12.0312C0.757811 11.4479 0.486977 10.8125 0.289061 10.125C0.091144 9.43749 -0.00521019 8.72915 -1.85843e-06 7.99999C-1.85843e-06 7.26561 0.0963523 6.55988 0.289061 5.8828C0.481769 5.20572 0.749998 4.5703 1.09375 3.97655C1.4375 3.3828 1.85677 2.84113 2.35156 2.35155C2.84635 1.86197 3.38541 1.4453 3.96875 1.10155C4.55208 0.757799 5.1875 0.486966 5.875 0.289049C6.5625 0.0911325 7.27083 -0.00522164 8 -1.33025e-05ZM13.9531 4.33592C13.8802 4.22134 13.8073 4.11197 13.7344 4.0078C13.6615 3.90363 13.5859 3.79686 13.5078 3.68749C13.4974 3.73436 13.4844 3.76822 13.4687 3.78905C13.4531 3.80988 13.4427 3.85676 13.4375 3.92967C13.4375 3.97655 13.4557 4.02082 13.4922 4.06249C13.5286 4.10415 13.5755 4.14582 13.6328 4.18749C13.6901 4.22915 13.7474 4.2604 13.8047 4.28124C13.862 4.30207 13.9115 4.3203 13.9531 4.33592ZM13.4141 3.5703C13.4141 3.61197 13.4062 3.64061 13.3906 3.65624H13.4375C13.4583 3.65624 13.474 3.65884 13.4844 3.66405L13.4141 3.5703ZM8 15C8.59375 15 9.17448 14.9245 9.74219 14.7734C10.3099 14.6224 10.8464 14.4088 11.3516 14.1328C11.8568 13.8568 12.3255 13.5182 12.7578 13.1172C13.1901 12.7161 13.5677 12.2682 13.8906 11.7734C13.8229 11.6172 13.7578 11.4583 13.6953 11.2969C13.6328 11.1354 13.6016 10.9687 13.6016 10.7969C13.6016 10.6094 13.6094 10.4583 13.625 10.3437C13.6406 10.2292 13.6589 10.1276 13.6797 10.039C13.7005 9.95051 13.7109 9.87499 13.7109 9.81249C13.7109 9.74999 13.7031 9.66926 13.6875 9.5703C13.6719 9.47134 13.6276 9.36457 13.5547 9.24999C13.4818 9.1354 13.3854 8.97394 13.2656 8.76561C13.2708 8.72915 13.2786 8.67967 13.2891 8.61717C13.2995 8.55467 13.3099 8.48957 13.3203 8.42186C13.3307 8.35415 13.3333 8.29165 13.3281 8.23436C13.3229 8.17707 13.3099 8.12759 13.2891 8.08592C13.1536 8.0703 13.013 8.04165 12.8672 7.99999C12.7214 7.95832 12.5911 7.89582 12.4766 7.81249L12.5234 7.77342C12.4557 7.78905 12.388 7.80988 12.3203 7.83592C12.2526 7.86197 12.1875 7.89061 12.125 7.92186C12.0625 7.95311 11.9948 7.97395 11.9219 7.98436C11.849 7.99478 11.7786 8.00519 11.7109 8.01561L11.5859 7.99999L11.6094 7.9453C11.5365 7.96613 11.4583 7.99217 11.375 8.02342C11.2917 8.05467 11.2109 8.0703 11.1328 8.0703C11.0807 8.0703 11.0052 8.05207 10.9062 8.01561C10.8073 7.97915 10.7083 7.93488 10.6094 7.8828C10.5104 7.83072 10.4219 7.77342 10.3437 7.71092C10.2656 7.64842 10.2266 7.58853 10.2266 7.53124L10.2422 7.5078C10.2161 7.47655 10.1823 7.4479 10.1406 7.42186C10.099 7.39582 10.0599 7.36978 10.0234 7.34374C9.98698 7.3177 9.95312 7.28905 9.92187 7.2578C9.89062 7.22655 9.8776 7.19009 9.88281 7.14842L9.96875 7.07811L9.78906 7.05467L9.72656 6.8203C9.73698 6.84634 9.76042 6.85676 9.79687 6.85155C9.83333 6.84634 9.86198 6.83592 9.88281 6.8203L9.60156 6.67186L9.79687 6.17186C9.72396 5.90103 9.70573 5.6927 9.74219 5.54686C9.77864 5.40103 9.84896 5.28124 9.95312 5.18749C10.0573 5.09374 10.1719 4.99999 10.2969 4.90624C10.4219 4.81249 10.5495 4.68488 10.6797 4.52342L10.6562 4.42967L11.1719 3.80467L11.2891 3.78905C11.4349 3.78905 11.599 3.78384 11.7812 3.77342C11.9635 3.76301 12.1484 3.74478 12.3359 3.71874C12.5234 3.69269 12.7083 3.66665 12.8906 3.64061C13.0729 3.61457 13.2396 3.58072 13.3906 3.53905C13.224 3.34113 13.0495 3.15363 12.8672 2.97655C12.6849 2.79947 12.4896 2.63019 12.2812 2.46874C12.224 2.48957 12.1536 2.51822 12.0703 2.55467C11.987 2.59113 11.9036 2.63801 11.8203 2.6953C11.737 2.75259 11.6719 2.81509 11.625 2.8828C11.5781 2.95051 11.5495 3.02082 11.5391 3.09374L11.5859 3.24217C11.4922 3.39322 11.388 3.48697 11.2734 3.52342C11.1589 3.55988 11.0417 3.58072 10.9219 3.58592C10.8021 3.59113 10.6771 3.59113 10.5469 3.58592C10.4167 3.58072 10.2917 3.60415 10.1719 3.65624L10.0469 3.39061L10.1641 2.93749L10.0312 2.74217L11.3828 2.3203C11.3255 2.17447 11.2318 2.06509 11.1016 1.99217C10.9714 1.91926 10.8281 1.8828 10.6719 1.8828V1.80467L11.1094 1.73436C10.625 1.49478 10.1224 1.31249 9.60156 1.18749C9.08073 1.06249 8.54687 0.999987 8 0.999987C7.54687 0.999987 7.09896 1.04426 6.65625 1.1328C6.21354 1.22134 5.78646 1.34895 5.375 1.51561C4.96354 1.68228 4.5651 1.89061 4.17969 2.14061C3.79427 2.39061 3.44271 2.67186 3.125 2.98436C3.26041 2.98436 3.36458 3.01822 3.4375 3.08592C3.51041 3.15363 3.57812 3.22915 3.64062 3.31249C3.70312 3.39582 3.76823 3.47134 3.83594 3.53905C3.90364 3.60676 3.99479 3.64322 4.10937 3.64842L4.23437 3.55467L4.21875 3.3828L4.47656 3.01561L4.27344 2.43749C4.29948 2.42186 4.33854 2.39582 4.39062 2.35936C4.44271 2.3229 4.48698 2.30467 4.52344 2.30467C4.67969 2.30467 4.79948 2.31249 4.88281 2.32811C4.96614 2.34374 5.03906 2.37238 5.10156 2.41405C5.16406 2.45572 5.21875 2.51561 5.26562 2.59374C5.3125 2.67186 5.38541 2.77082 5.48437 2.89061L5.76562 2.67186C5.81771 2.69269 5.90104 2.72655 6.01562 2.77342C6.13021 2.8203 6.24739 2.87759 6.36719 2.9453C6.48698 3.01301 6.58854 3.08332 6.67187 3.15624C6.75521 3.22915 6.79948 3.29686 6.80469 3.35936C6.80469 3.43749 6.77604 3.49999 6.71875 3.54686C6.66146 3.59374 6.58594 3.6328 6.49219 3.66405C6.39844 3.6953 6.30208 3.71874 6.20312 3.73436C6.10416 3.74999 6.00521 3.77082 5.90625 3.79686C5.80729 3.8229 5.73177 3.84894 5.67969 3.87499C5.6276 3.90103 5.59635 3.9453 5.58594 4.0078L6.03906 4.15624C5.93489 4.24478 5.82291 4.32551 5.70312 4.39842C5.58333 4.47134 5.45833 4.53905 5.32812 4.60155L5.35937 4.73436L4.64062 5.01561V5.23436L4.58594 5.2578L4.625 4.98436L4.59375 4.97655C4.55729 4.97655 4.53646 4.98436 4.53125 4.99999C4.52604 5.01561 4.52344 5.03384 4.52344 5.05467C4.52344 5.07551 4.52864 5.09634 4.53906 5.11717C4.54948 5.13801 4.55208 5.15363 4.54687 5.16405L4.44531 5.10936L4.46094 5.14061C4.46094 5.15624 4.46875 5.17967 4.48437 5.21092C4.5 5.24217 4.52083 5.27082 4.54687 5.29686C4.57291 5.3229 4.59375 5.34895 4.60937 5.37499C4.625 5.40103 4.63541 5.41405 4.64062 5.41405C4.64062 5.42967 4.63021 5.4453 4.60937 5.46092C4.58854 5.47655 4.5625 5.48697 4.53125 5.49217C4.5 5.49738 4.47916 5.5052 4.46875 5.51561C4.45833 5.52603 4.45833 5.52863 4.46875 5.52342C4.54166 5.52342 4.55729 5.52863 4.51562 5.53905C4.47396 5.54947 4.40885 5.57551 4.32031 5.61717C4.23177 5.65884 4.15104 5.71874 4.07812 5.79686C4.00521 5.87499 3.96354 5.98957 3.95312 6.14061C3.95312 6.22915 3.95573 6.31509 3.96094 6.39842C3.96614 6.48176 3.96354 6.5677 3.95312 6.65624C3.88021 6.45832 3.77083 6.30728 3.625 6.20311C3.47916 6.09895 3.30208 6.04686 3.09375 6.04686L2.75781 6.07811L2.92187 6.18749C2.83333 6.17707 2.74219 6.16665 2.64844 6.15624C2.55469 6.14582 2.45833 6.14322 2.35937 6.14842C2.26041 6.15363 2.17187 6.17447 2.09375 6.21092C2.01562 6.24738 1.9375 6.30207 1.85937 6.37499L1.8125 6.72655C1.8125 6.89322 1.84896 7.02863 1.92187 7.1328C1.99479 7.23697 2.12239 7.29165 2.30469 7.29686C2.46094 7.29686 2.61458 7.27342 2.76562 7.22655C2.91666 7.17967 3.0651 7.12499 3.21094 7.06249C3.16406 7.17707 3.11198 7.28645 3.05469 7.39061C2.99739 7.49478 2.95573 7.60936 2.92969 7.73436L3.03125 7.78124C3.15625 7.6979 3.27083 7.68488 3.375 7.74217C3.47916 7.79947 3.58073 7.8828 3.67969 7.99217C3.77864 8.10155 3.88021 8.21353 3.98437 8.32811C4.08854 8.44269 4.20052 8.52603 4.32031 8.57811L4.05469 8.71874L3.42969 8.36717C3.43489 8.37759 3.4401 8.40103 3.44531 8.43749C3.45052 8.47394 3.44791 8.48176 3.4375 8.46092L3.15625 7.98436C2.98958 7.97915 2.8125 7.95311 2.625 7.90624C2.4375 7.85936 2.24739 7.79686 2.05469 7.71874C1.86198 7.64061 1.68229 7.55467 1.51562 7.46092C1.34896 7.36717 1.19531 7.26822 1.05469 7.16405L0.999998 7.99999C0.999998 8.6354 1.08594 9.25519 1.25781 9.85936C1.42969 10.4635 1.67187 11.0312 1.98437 11.5625C2.29687 12.0937 2.67969 12.5781 3.13281 13.0156C3.58594 13.4531 4.08854 13.8255 4.64062 14.1328C4.61458 14.0234 4.61198 13.914 4.63281 13.8047C4.65364 13.6953 4.67969 13.5859 4.71094 13.4765C4.74219 13.3672 4.77604 13.2578 4.8125 13.1484C4.84896 13.039 4.86719 12.9271 4.86719 12.8125C4.86719 12.6458 4.84114 12.4713 4.78906 12.289C4.73698 12.1068 4.67448 11.9219 4.60156 11.7344C4.52864 11.5469 4.44791 11.362 4.35937 11.1797C4.27083 10.9974 4.20052 10.8255 4.14844 10.664C4.09635 10.5026 4.05469 10.3515 4.02344 10.2109C3.99219 10.0703 4.00781 9.9479 4.07031 9.84374L3.95312 9.78905C3.98437 9.71613 4.02604 9.64582 4.07812 9.57811C4.13021 9.5104 4.18489 9.44269 4.24219 9.37499C4.29948 9.30728 4.34375 9.23436 4.375 9.15624C4.40625 9.07811 4.42448 8.99999 4.42969 8.92186C4.42969 8.86978 4.41927 8.81509 4.39844 8.7578C4.3776 8.70051 4.35937 8.64582 4.34375 8.59374L4.50781 8.6328C4.59635 8.42967 4.71614 8.29165 4.86719 8.21874C5.01823 8.14582 5.20833 8.10676 5.4375 8.10155C5.46354 8.10155 5.51823 8.11197 5.60156 8.1328C5.68489 8.15363 5.77344 8.18228 5.86719 8.21874C5.96094 8.25519 6.04948 8.28384 6.13281 8.30467C6.21614 8.32551 6.27864 8.34634 6.32031 8.36717C6.32031 8.40363 6.34114 8.42707 6.38281 8.43749C6.42448 8.4479 6.44791 8.46613 6.45312 8.49217L6.4375 8.55467C6.45312 8.55988 6.48958 8.57811 6.54687 8.60936C6.60416 8.64061 6.66666 8.67967 6.73437 8.72655C6.80208 8.77342 6.86198 8.81509 6.91406 8.85155C6.96614 8.88801 7.0026 8.91665 7.02344 8.93749C7.11719 8.93749 7.24479 8.96874 7.40625 9.03124C7.56771 9.09374 7.74479 9.17186 7.9375 9.26561C8.13021 9.35936 8.32031 9.47134 8.50781 9.60155C8.69531 9.73176 8.87239 9.86197 9.03906 9.99217C9.20573 10.1224 9.33333 10.2526 9.42187 10.3828C9.51042 10.513 9.5625 10.6276 9.57812 10.7265L9.3125 11.0078C9.33333 11.2734 9.3151 11.4765 9.25781 11.6172C9.20052 11.7578 9.11198 11.875 8.99219 11.9687C8.87239 12.0625 8.73437 12.1406 8.57812 12.2031C8.42187 12.2656 8.2526 12.3542 8.07031 12.4687C8.07031 12.5729 8.04427 12.6849 7.99219 12.8047C7.9401 12.9245 7.875 13.039 7.79687 13.1484C7.71875 13.2578 7.625 13.3489 7.51562 13.4219C7.40625 13.4948 7.29687 13.5312 7.1875 13.5312L6.85937 13.2812C6.86979 13.2917 6.86979 13.3099 6.85937 13.3359C6.84896 13.362 6.83594 13.3672 6.82031 13.3515C6.87239 13.4505 6.88541 13.5651 6.85937 13.6953C6.83333 13.8255 6.78906 13.9583 6.72656 14.0937C6.66406 14.2292 6.59375 14.3568 6.51562 14.4765C6.4375 14.5963 6.36719 14.6979 6.30469 14.7812C6.58594 14.8542 6.86719 14.9088 7.14844 14.9453C7.42969 14.9818 7.71354 15 8 15Z" fill="white"/>
</g>
<defs>
<clipPath id="clip0_15_316">
<rect width="16" height="16" fill="white"/>
</clipPath>
</defs>
</svg>
