<svg width="18" height="18" viewBox="0 0 18 18" fill="none" xmlns="http://www.w3.org/2000/svg">
<path d="M17.0775 14.49L16.275 13.875C16.29 13.7475 16.305 13.6275 16.305 13.5C16.305 13.3725 16.2975 13.2525 16.275 13.125L17.07 12.51C17.1037 12.4811 17.1265 12.4416 17.1347 12.3979C17.1429 12.3543 17.136 12.3091 17.115 12.27L16.365 10.9725C16.32 10.875 16.2225 10.875 16.125 10.875L15.2025 11.25C15 11.115 14.7975 10.9875 14.565 10.8975L14.4225 9.9075C14.4178 9.86478 14.3977 9.82524 14.3659 9.79625C14.3342 9.76727 14.293 9.75083 14.25 9.75H12.75C12.7042 9.74915 12.6595 9.76446 12.6238 9.79327C12.5882 9.82207 12.5638 9.86251 12.555 9.9075L12.4125 10.8975C12.1875 10.995 11.97 11.115 11.775 11.25L10.845 10.875C10.7625 10.875 10.665 10.875 10.6125 10.9725L9.86251 12.27C9.81751 12.3525 9.83251 12.45 9.90751 12.51L10.7025 13.125C10.6726 13.3741 10.6726 13.6259 10.7025 13.875L9.90751 14.49C9.8738 14.5189 9.85097 14.5584 9.84279 14.6021C9.83461 14.6457 9.84156 14.6908 9.86251 14.73L10.6125 16.0275C10.6575 16.125 10.755 16.125 10.845 16.125L11.775 15.75C11.97 15.885 12.18 16.0125 12.4125 16.1025L12.555 17.0925C12.57 17.1825 12.645 17.25 12.75 17.25H14.25C14.3325 17.25 14.415 17.1825 14.43 17.0925L14.5725 16.1025C14.7975 16.005 15 15.885 15.2025 15.75L16.125 16.125C16.2225 16.125 16.32 16.125 16.3725 16.0275L17.1225 14.73C17.1434 14.6908 17.1504 14.6457 17.1422 14.6021C17.134 14.5584 17.1112 14.5189 17.0775 14.49ZM13.5 14.625C12.87 14.625 12.375 14.1225 12.375 13.5C12.375 12.8775 12.8775 12.375 13.5 12.375C14.1225 12.375 14.625 12.8775 14.625 13.5C14.625 14.1225 14.1225 14.625 13.5 14.625ZM13.215 2.415C13.0725 2.31 12.915 2.25 12.75 2.25H2.25001C2.08501 2.25 1.92751 2.31 1.78501 2.415C1.62933 2.53766 1.52854 2.71695 1.50465 2.9137C1.48076 3.11044 1.53571 3.30865 1.65751 3.465L5.25001 8.0625V11.9025C5.22001 12.12 5.29501 12.3525 5.46751 12.525L8.47501 15.5325C8.55001 15.6075 8.62501 15.66 8.73751 15.6975C8.41501 15 8.25001 14.25 8.25001 13.5C8.25001 12.1275 8.79001 10.8075 9.75001 9.825V8.0625L13.3425 3.465C13.4643 3.30865 13.5193 3.11044 13.4954 2.9137C13.4715 2.71695 13.3707 2.53766 13.215 2.415ZM8.25001 7.5375V13.185L6.75001 11.685V7.545L3.78001 3.75H11.22L8.25001 7.5375Z" fill="white"/>
</svg>
