<svg width="15" height="13" viewBox="0 0 15 13" fill="none" xmlns="http://www.w3.org/2000/svg">
<path d="M1.83337 0.833328H13.1667C13.9459 0.833328 14.5763 1.47083 14.5763 2.24999L14.5834 10.75C14.5834 11.5292 13.9459 12.1667 13.1667 12.1667H1.83337C1.05421 12.1667 0.416708 11.5292 0.416708 10.75V2.24999C0.416708 1.47083 1.05421 0.833328 1.83337 0.833328ZM2.11671 3.84374L7.12462 6.97458C7.35129 7.11624 7.64879 7.11624 7.87546 6.97458L12.8834 3.84374C12.9544 3.80387 13.0166 3.75 13.0662 3.6854C13.1158 3.62079 13.1518 3.5468 13.172 3.46788C13.1921 3.38897 13.1961 3.30678 13.1836 3.2263C13.1711 3.14581 13.1424 3.0687 13.0992 2.99962C13.056 2.93055 12.9993 2.87096 12.9324 2.82445C12.8656 2.77794 12.79 2.74548 12.7102 2.72904C12.6304 2.7126 12.5481 2.71251 12.4683 2.72879C12.3885 2.74507 12.3128 2.77737 12.2459 2.82374L7.50004 5.79166L2.75421 2.82374C2.68724 2.77737 2.61157 2.74507 2.53176 2.72879C2.45195 2.71251 2.36967 2.7126 2.28989 2.72904C2.21012 2.74548 2.13451 2.77794 2.06764 2.82445C2.00077 2.87096 1.94404 2.93055 1.90087 2.99962C1.8577 3.0687 1.82899 3.14581 1.81649 3.2263C1.80398 3.30678 1.80794 3.38897 1.82811 3.46788C1.84829 3.5468 1.88427 3.62079 1.93388 3.6854C1.98348 3.75 2.04568 3.80387 2.11671 3.84374Z" fill="white"/>
</svg>
