<svg width="13" height="16" viewBox="0 0 13 16" fill="none" xmlns="http://www.w3.org/2000/svg">
<path d="M6.49996 12.0417C6.12424 12.0417 5.7639 11.8924 5.49823 11.6267C5.23255 11.3611 5.08329 11.0007 5.08329 10.625C5.08329 10.2493 5.23255 9.88894 5.49823 9.62326C5.7639 9.35759 6.12424 9.20833 6.49996 9.20833C6.87568 9.20833 7.23602 9.35759 7.50169 9.62326C7.76737 9.88894 7.91663 10.2493 7.91663 10.625C7.91663 11.0007 7.76737 11.3611 7.50169 11.6267C7.23602 11.8924 6.87568 12.0417 6.49996 12.0417ZM2.24996 5.66667C1.87424 5.66667 1.5139 5.81592 1.24823 6.0816C0.982549 6.34727 0.833293 6.70761 0.833293 7.08333V14.1667C0.833293 14.5424 0.982549 14.9027 1.24823 15.1684C1.5139 15.4341 1.87424 15.5833 2.24996 15.5833H10.75C11.1257 15.5833 11.486 15.4341 11.7517 15.1684C12.0174 14.9027 12.1666 14.5424 12.1666 14.1667V7.08333C12.1666 6.70761 12.0174 6.34727 11.7517 6.0816C11.486 5.81592 11.1257 5.66667 10.75 5.66667H10.0416V4.25C10.0416 3.31069 9.66849 2.40985 9.0043 1.74566C8.3401 1.08147 7.43927 0.708332 6.49996 0.708332C6.03486 0.708332 5.57432 0.79994 5.14462 0.977925C4.71493 1.15591 4.3245 1.41679 3.99562 1.74566C3.66675 2.07454 3.40587 2.46497 3.22789 2.89466C3.0499 3.32436 2.95829 3.7849 2.95829 4.25V5.66667H2.24996ZM6.49996 2.125C7.06354 2.125 7.60405 2.34888 8.00256 2.7474C8.40108 3.14591 8.62496 3.68641 8.62496 4.25V5.66667H4.37496V4.25C4.37496 3.68641 4.59884 3.14591 4.99736 2.7474C5.39587 2.34888 5.93637 2.125 6.49996 2.125Z" fill="white"/>
</svg>
